<svg id="Raggruppa_18" data-name="Raggruppa 18" xmlns="http://www.w3.org/2000/svg" xmlns:xlink="http://www.w3.org/1999/xlink" width="79.452" height="86.144" viewBox="0 0 79.452 86.144">
  <defs>
    <clipPath id="clip-path">
      <rect id="Rettangolo_33" data-name="Rettangolo 33" width="79.452" height="86.144" fill="#fe8672"/>
    </clipPath>
  </defs>
  <g id="Raggruppa_17" data-name="Raggruppa 17" clip-path="url(#clip-path)">
    <path id="Tracciato_25" data-name="Tracciato 25" d="M134.675,0c1.613.871,2.79,2.013,2.765,4.039,0,.283.469.687.809.838,1.426.635,2.884,1.2,4.34,1.787,2.966-2.267,4.265-2.183,6.922.465q1.073,1.069,2.143,2.14c2.766,2.767,2.86,3.941.587,7.041.586,1.468,1.112,2.943,1.778,4.353a1.792,1.792,0,0,0,1.194.818c2.444.381,3.641,1.672,3.681,4.182q.041,2.523,0,5.048c-.041,2.41-1.194,3.661-3.543,4.178a3.061,3.061,0,0,0-1.461,1.195,11.782,11.782,0,0,0-.642,1.54c-.778,1.41-1.2,2.586.1,4.147,1.1,1.321.5,3.018-.675,4.283-1.029,1.11-2.129,2.154-3.2,3.224-2.559,2.554-4.012,2.643-6.848.4-1.477.595-3,1.143-4.45,1.835a1.817,1.817,0,0,0-.759,1.231c-.361,2.281-1.6,3.49-3.933,3.561-1.849.057-3.7.058-5.552,0a3.566,3.566,0,0,1-3.839-3.436,1.562,1.562,0,0,0-1.333-1.6,5.5,5.5,0,0,1-1.568-.588c-1.372-.816-2.517-1.169-4.014.087a3.04,3.04,0,0,1-4.029-.417c-1.574-1.433-3.085-2.945-4.524-4.513a3.5,3.5,0,0,1-.137-4.762,1.732,1.732,0,0,0,.2-2.362,5.619,5.619,0,0,1-.613-1.378c-.442-1.5-.989-2.612-2.934-2.766a2.909,2.909,0,0,1-2.481-3c-.1-2.238-.12-4.487,0-6.723a3.414,3.414,0,0,1,3.406-3.293,1.463,1.463,0,0,0,1.517-1.186c.455-1.375,1.082-2.693,1.639-4.039-2.266-3.124-2.168-4.315.585-7.071.952-.952,1.886-1.923,2.861-2.85,1.76-1.674,3.486-1.722,5.441-.346a2.438,2.438,0,0,0,1.7.207c.641-.126,1.2-.624,1.844-.784a3.082,3.082,0,0,0,2.7-2.795C124.5,1.693,125.806.889,126.6,0ZM110.962,13.017a7.662,7.662,0,0,0,.856.95c1.467,1.139,1.569,2.361.559,3.928a14.943,14.943,0,0,0-1.638,3.666c-1.062,3.433-.8,3.243-4.333,3.36-.095,0-.186.1-.478.265,0,1.5.067,3.117-.022,4.724-.068,1.243.346,1.793,1.617,1.623,1.719-.23,2.54.606,2.925,2.246a10.9,10.9,0,0,0,1.434,3.74c1.535,2.187,1.466,3.96-.706,5.582-.065.049-.048.207,0-.043l4.555,4.713c.173-.15.435-.356.674-.586,1.855-1.779,1.843-1.759,4.164-.542,1.025.538,2.1.974,3.426,1.579,0-2.072-.082-3.854.028-5.624a2.4,2.4,0,0,0-1.4-2.5,14.852,14.852,0,0,1-.629-25.1c1.251-.829,2.587-1.517,4.07-.687,1.426.8,1.494,2.248,1.487,3.688-.014,2.861-.061,5.722,0,8.581A3.354,3.354,0,0,0,130.61,30a3.484,3.484,0,0,0,3.319-3.2,11.828,11.828,0,0,0,.038-1.513c-.007-2.692-.065-5.386-.017-8.077.051-2.829,2.065-4.028,4.581-2.732a11.97,11.97,0,0,1,2.34,1.624,14.877,14.877,0,0,1-2.128,24.1c-.519.315-1.25.839-1.279,1.305-.137,2.145-.061,4.3-.061,6.678a12.422,12.422,0,0,0,2.687-1.159c2.144-1.669,3.942-1.454,5.558.7.05.067.207.053.127.035l4.622-4.518c-.2-.231-.4-.495-.632-.735-1.794-1.868-1.757-1.923-.6-4.19a20.134,20.134,0,0,0,1.711-4.181c.462-1.856,1.28-2.884,3.347-2.658.4.044,1.229-.5,1.249-.818.119-1.88.059-3.771.059-5.68-.561-.052-.89-.1-1.219-.11-2.571-.066-2.611-.115-3.369-2.565a13.781,13.781,0,0,0-1.128-2.974c-1.362-2.3-2.415-4.48.71-6.141l-4.7-4.7A5.249,5.249,0,0,0,145,9.2c-1.185,1.516-2.457,1.652-4.077.574a9.078,9.078,0,0,0-3.508-1.556c-2.719-.4-3.766-1.829-3.461-4.452.009-.08-.114-.175-.213-.317h-6.222a6.332,6.332,0,0,0-.139,1.369c.234,1.887-.658,2.739-2.445,3.123a16.7,16.7,0,0,0-3.595,1.38c-3.036,1.448-3.022,1.474-5.566-.725-.072-.062-.2-.055-.273-.072l-4.539,4.491m13.189,4.68c-.49.3-.687.4-.862.534a11.445,11.445,0,0,0,2.037,19.491,3.073,3.073,0,0,1,2.067,3.348c-.118,2.406-.03,4.822-.03,7.233v4.513h6.667c0-4.115.037-8.088-.02-12.06a2.679,2.679,0,0,1,1.778-2.857,11.345,11.345,0,0,0,6.828-9.139c.646-4.172-1.829-9.3-5.282-10.8,0,1.436,0,2.823,0,4.211,0,1.458.038,2.918-.014,4.374a6.966,6.966,0,0,1-5.855,6.8,6.634,6.634,0,0,1-7-4.832,10.883,10.883,0,0,1-.3-2.823c-.038-2.561-.013-5.123-.013-7.988" transform="translate(-79.462)" fill="#fe8672"/>
    <path id="Tracciato_26" data-name="Tracciato 26" d="M15.8,254.774v12.968c2.466.4,4.96.633,7.357,1.242,6.456,1.639,12.9,3.337,19.291,5.22a10.189,10.189,0,0,0,9.516-1.632,16.334,16.334,0,0,1,3.046-2.072,2.645,2.645,0,0,1,2.326.239c.834.744.5,1.769-.418,2.419-1.552,1.1-3.1,2.224-4.721,3.215a11.806,11.806,0,0,1-9.695,1.284c-7.068-1.953-14.145-3.88-21.248-5.7a23.726,23.726,0,0,0-4.981-.451,1.62,1.62,0,0,0-1.128.72,4.728,4.728,0,0,1-4.386,2.293c-2.074-.05-4.151.025-6.224-.026a4.347,4.347,0,0,1-4.488-4.464q-.089-8.831,0-17.664a4.36,4.36,0,0,1,4.383-4.419,49.4,49.4,0,0,1,6.89.051,6.01,6.01,0,0,1,3.209,1.53c1.527,1.406,2.692,1.827,4.816,1.15,1.918-.611,3.819-1.317,5.779-1.745,5.562-1.215,10.289.671,14.375,4.33a5.435,5.435,0,0,0,4.214,1.538,59.687,59.687,0,0,1,6.894.014,8.152,8.152,0,0,1,3.653.976,2.414,2.414,0,0,0,2.823.114c3.9-2.083,7.831-4.121,11.8-6.067,4.138-2.028,8.523.173,9.038,4.491A5.8,5.8,0,0,1,75.6,259.8c-1.941,1.518-3.989,2.9-6,4.325a1.633,1.633,0,0,1-2.516-.245c-.765-1.052-.262-1.887.677-2.555,1.735-1.235,3.482-2.455,5.2-3.72,1.632-1.2,2.066-2.73,1.216-4.033-.8-1.229-2.308-1.491-4.062-.606-4,2.02-7.991,4.054-11.944,6.162a2.079,2.079,0,0,0-.9,1.5c-.159,4.036-2.545,6.51-6.547,6.547-4.6.042-9.2,0-13.8.015-1.223,0-2.378-.166-2.342-1.707s1.234-1.662,2.426-1.662q6.9,0,13.8,0c1.455,0,2.7-.615,2.868-2.044a4.465,4.465,0,0,0-.974-2.944c-.4-.517-1.51-.643-2.309-.666-2.69-.078-5.384-.067-8.075-.02a5.545,5.545,0,0,1-4.225-1.671c-4.69-4.629-10.069-5.649-16.216-3.186a44.4,44.4,0,0,1-6.075,1.486M3.386,261.257c0,2.687.029,5.374-.013,8.06-.019,1.248.405,1.88,1.747,1.838q2.768-.086,5.541,0c1.262.037,1.691-.582,1.689-1.734q-.014-8.228,0-16.456c0-1.2-.55-1.719-1.753-1.692-1.79.041-3.583.054-5.373,0-1.4-.045-1.879.587-1.852,1.928.054,2.686.016,5.373.016,8.06" transform="translate(0 -192.014)" fill="#fe8672"/>
    <path id="Tracciato_27" data-name="Tracciato 27" d="M270.471,330.723c-.464-.593-1.185-1.13-1.332-1.793a1.32,1.32,0,0,1,1.522-1.688c.64.105,1.581.882,1.63,1.426.058.64-.7,1.355-1.108,2.037l-.712.018" transform="translate(-208.475 -253.503)" fill="#fe8672"/>
  </g>
</svg>
