<svg id="Raggruppa_14" data-name="Raggruppa 14" xmlns="http://www.w3.org/2000/svg" xmlns:xlink="http://www.w3.org/1999/xlink" width="67.8" height="86.144" viewBox="0 0 67.8 86.144">
  <defs>
    <clipPath id="clip-path">
      <rect id="Rettangolo_31" data-name="Rettangolo 31" width="67.8" height="86.144" fill="#fe8672"/>
    </clipPath>
  </defs>
  <g id="Raggruppa_13" data-name="Raggruppa 13" clip-path="url(#clip-path)">
    <path id="Tracciato_15" data-name="Tracciato 15" d="M19.029,86.144a8.4,8.4,0,0,1-1.008-2.312,43.512,43.512,0,0,1-.047-4.631c-.578-.152-1.112-.266-1.629-.432a5.822,5.822,0,0,1-4.4-5.192C10.656,60.91,9.432,48.237,8.182,35.566c-.225-2.284-.477-4.566-.73-6.98-1.441.339-2.8.652-4.147.978a1.776,1.776,0,0,1-2.41-1.435c-.307-1.194-.6-2.393-.838-3.6a1.534,1.534,0,0,1,1.219-2.046A1.605,1.605,0,0,1,3.29,23.8c.2.686.387,1.374.613,2.179L63.928,10.684c-.054-3.779-2.982-5.16-5.825-4.414-14.63,3.838-29.3,7.507-43.962,11.237-.272.069-.536.182-.812.228-1.006.165-1.836-.091-2.107-1.166a1.617,1.617,0,0,1,1.365-2.124c2.059-.542,4.123-1.061,6.324-1.625-.155-.693-.284-1.277-.416-1.86a5.946,5.946,0,0,1,4.353-7.286C27.3,2.485,31.777,1.37,36.253.262c3.882-.96,6.767.752,7.84,4.587.119.427.258.849.439,1.441,4.17-1.058,8.314-2.02,12.406-3.166,6.923-1.94,10.2,2.689,10.849,8.625.141,1.3-.9,1.674-1.928,1.935q-6.785,1.722-13.571,3.442a3.538,3.538,0,0,0-1.567.755c.818.061,1.637.183,2.454.172a9.67,9.67,0,0,1,9.045,5.131,2.642,2.642,0,0,0,1.848.919c1.933.169,2.427.561,2.273,2.488-.228,2.851-.542,5.7-.828,8.541-.121,1.208-.622,2.119-2.019,1.893-1.3-.21-1.441-1.2-1.326-2.314.24-2.33.436-4.665.658-7.092H10.84c.179,2.11.326,4.1.52,6.083Q13.173,52.206,15,70.709c.016.168.026.336.044.5.43,4.083.864,4.467,5.047,4.467q17.155,0,34.311,0c3.02,0,3.807-.686,4.1-3.647q1.052-10.549,2.059-21.1c.121-1.286.357-2.508,1.942-2.36,1.473.137,1.575,1.346,1.454,2.563-.711,7.144-1.452,14.286-2.1,21.436-.341,3.771-2.278,5.968-5.767,6.511l-1.234,7.065Zm2.4-3.456H52.177V79.167H21.428ZM58.779,24.075a6.873,6.873,0,0,0-5.158-2.694c-2.251-.249-4.445-.976-6.688-1.347a13,13,0,0,0-4.58-.287c-4.062.839-8.059,1.987-12.081,3.015q-2.138.546-4.274,1.1l.069.212Zm-36.4-12.129L40.973,7.2c-.138-3.3-1.414-4.309-4.371-3.564C32.742,4.612,28.887,5.61,25.03,6.6c-3.414.874-3.9,1.791-2.649,5.348" transform="translate(0 0)" fill="#fe8672"/>
    <path id="Tracciato_16" data-name="Tracciato 16" d="M143.916,167.776c1.367,0,2.425-.308,3.1.067,1.215.677.7,1.82.147,2.8-.055.1-.092.2-.142.305-1.5,3.022-3.34,3.682-6.476,2.2-.474-.223-1.1-.955-1.025-1.332a3.564,3.564,0,0,1,1.43-1.994c0-.111.047-.258-.007-.326-.8-1.021-1.471-2.669-2.467-2.9-1.581-.366-1.788,1.67-2.526,2.708-.712,1-1.252,2.125-1.871,3.194a1.665,1.665,0,0,1-2.426.783,1.609,1.609,0,0,1-.493-2.472c1.071-1.844,2.068-3.736,3.233-5.519a4.754,4.754,0,0,1,7.971-.082c.672.962,1.219,2.01,1.553,2.566" transform="translate(-101.32 -126.333)" fill="#fe8672"/>
    <path id="Tracciato_17" data-name="Tracciato 17" d="M103.054,229.182c-.057.093-.356.563-.633,1.045-1.283,2.225-.815,3.067,1.72,3.083,1.631.01,3.262.023,4.892,0,1.215-.019,2.228.322,2.209,1.7s-1.064,1.686-2.255,1.679c-1.912-.012-3.826.052-5.736-.018-4.075-.15-6.13-3.81-4.181-7.385.4-.732.827-1.448,1.3-2.275-.45-.236-1.049-.354-1.149-.643-.244-.7-.6-1.686-.3-2.2.98-1.68,5.792-1.177,6.594.592.277.612.528,1.235.807,1.846.422.923.728,2-.32,2.522-.68.341-1.674.064-2.949.064" transform="translate(-76.167 -172.844)" fill="#fe8672"/>
    <path id="Tracciato_18" data-name="Tracciato 18" d="M180.175,234.564l3.927-1.025c-.373-1.161-.661-2.359-1.143-3.473a31.013,31.013,0,0,0-1.654-2.923c-.576-1.009-.614-1.969.518-2.587,1.055-.576,1.828-.055,2.374.878.991,1.692,2.036,3.357,2.937,5.1a4.72,4.72,0,0,1-3.891,7.026,6.934,6.934,0,0,0-2.659.413c-.49.756-.813,1.806-1.51,2.2-1.119.634-1.8-.417-2.4-1.253-.032-.046-.068-.089-.1-.134-2.1-2.825-1.863-4.744.957-6.871a2.026,2.026,0,0,1,1.688-.254c.462.188.793.848,1.03,1.369.138.3-.021.74-.076,1.539" transform="translate(-135.703 -173.762)" fill="#fe8672"/>
    <path id="Tracciato_19" data-name="Tracciato 19" d="M22.1,74.337c-.679.4-1.386,1.141-2.028,1.089a2.262,2.262,0,0,1-1.461-1.565,1.338,1.338,0,0,1,1.683-1.538c.666.129,1.216.848,1.818,1.3l-.011.71" transform="translate(-14.396 -55.999)" fill="#fe8672"/>
    <path id="Tracciato_20" data-name="Tracciato 20" d="M274.881,181.168c.4.682,1.139,1.4,1.08,2.035a2.108,2.108,0,0,1-1.578,1.4,2.146,2.146,0,0,1-1.518-1.5c-.014-.644.8-1.305,1.25-1.959l.766.029" transform="translate(-211.37 -140.316)" fill="#fe8672"/>
  </g>
</svg>
