<svg id="Raggruppa_8" data-name="Raggruppa 8" xmlns="http://www.w3.org/2000/svg" xmlns:xlink="http://www.w3.org/1999/xlink" width="82.98" height="83.284" viewBox="0 0 82.98 83.284">
  <defs>
    <clipPath id="clip-path">
      <rect id="Rettangolo_28" data-name="Rettangolo 28" width="82.98" height="83.284" fill="#fe8672"/>
    </clipPath>
  </defs>
  <g id="Raggruppa_7" data-name="Raggruppa 7" clip-path="url(#clip-path)">
    <path id="Tracciato_3" data-name="Tracciato 3" d="M129.22,172.629c0-3.306-.019-6.611,0-9.917a9.465,9.465,0,0,0-4.958-8.722c-2.929-1.71-6.019-3.139-9.259-4.806-.4,2.38-.745,4.591-1.135,6.8-.5,2.827-1.193,3.208-3.812,2.152-1.9-.766-3.778-1.6-5.711-2.268a3.421,3.421,0,0,0-2.114,0c-2.182.777-4.3,1.728-6.467,2.555-1.681.642-2.553.139-2.884-1.645-.453-2.444-.849-4.9-1.324-7.674-3.546,1.924-7.051,3.579-10.285,5.659a8.747,8.747,0,0,0-3.911,7.792c.01,3.36,0,6.72,0,10.079H73.8c.058-3.737,0-7.479.2-11.208.249-4.706,2.714-8.164,6.675-10.494,2.554-1.5,5.238-2.8,7.919-4.064a18.287,18.287,0,0,0,5.864-4.218c1.519-1.67,1.979-1.634,3.823-.25,1.341,1.005,2.706,1.98,4,3.039a1.311,1.311,0,0,0,1.965.041c1.242-1.034,2.565-1.97,3.92-3l-.675-1.9c-5.745,2.011-10.192.1-13.6-4.435a20.692,20.692,0,0,1-3-5.7c-1.586-4.679-2.127-9.492-.607-14.336a13.818,13.818,0,0,1,12.889-9.4c5.479-.136,11.377,3.63,12.925,8.866a22.682,22.682,0,0,1-3.953,21.288c-.513.664-1.467,1.421-1.386,2.021a7.045,7.045,0,0,0,1.452,3.685,19.812,19.812,0,0,0,4.655,3.652c2.751,1.595,5.7,2.835,8.488,4.374a13.375,13.375,0,0,1,7.356,12.613c-.024,3.141.047,6.283.075,9.424ZM93.651,118.513c.88-.668,1.82-1.27,2.626-2.018,1.513-1.4,2.232-1.479,3.65.041a7.516,7.516,0,0,0,5.66,2.326,12.194,12.194,0,0,1,3.053.119,2.239,2.239,0,0,1,1.391,1.565,2.114,2.114,0,0,1-1.313,1.614c-3.392.265-6.813.421-9.766-1.841a1.524,1.524,0,0,0-1.251-.3c-1.578.758-3.1,1.636-4.772,2.544.159,4.415,1.143,8.716,4.25,12.29,3.419,3.933,8.624,4.139,12,.2,4.531-5.289,5.512-11.556,3.725-18.13-1.164-4.28-5.958-7.1-10.368-6.7a9.443,9.443,0,0,0-8.885,8.293m16.929,36.08c.34-2.071.5-3.914.971-5.676.456-1.721-.3-2.6-1.64-3.383-1.687,1.266-3.358,2.452-4.95,3.738a2.313,2.313,0,0,1-3.319.013c-1.627-1.314-3.335-2.525-5.275-3.98-.549.905-1.461,1.714-1.413,2.461a68.524,68.524,0,0,0,1.068,6.818c2.1-.844,3.954-1.7,5.885-2.316a4.8,4.8,0,0,1,2.755-.007c1.932.616,3.788,1.474,5.918,2.332" transform="translate(-61.796 -89.346)" fill="#fe8672"/>
    <path id="Tracciato_4" data-name="Tracciato 4" d="M278.606,27.328c-.872,1.8-2,3.327-4.1,3.778-1.139.244-2.27.219-2.661-1.114s.417-2.04,1.656-2.255a1.805,1.805,0,0,0,1.621-2.053q0-10.079,0-20.158c0-1.688-1.029-2.045-2.462-2.04-7.018.021-14.035.009-21.053.009-3.995,0-7.99-.011-11.984.006-2,.008-2.482.507-2.5,2.5q-.021,2.845,0,5.69c.01,1.191-.429,2.1-1.7,2.125-1.285.03-1.762-.9-1.774-2.063-.023-2.167-.05-4.336.013-6.5.08-2.732,1.672-4.336,4.1-5.248h36.946a7.258,7.258,0,0,1,3.889,3.9Z" transform="translate(-195.625)" fill="#fe8672"/>
    <rect id="Rettangolo_18" data-name="Rettangolo 18" width="3.565" height="8.54" transform="translate(22.376 74.744)" fill="#fe8672"/>
    <rect id="Rettangolo_19" data-name="Rettangolo 19" width="3.565" height="8.598" transform="translate(57.053 74.686)" fill="#fe8672"/>
    <path id="Tracciato_5" data-name="Tracciato 5" d="M10.385,137.658c-1.873,0-3.488.045-5.1-.01a5.111,5.111,0,0,1-5.26-5.38q-.052-10.16,0-20.32a5.129,5.129,0,0,1,5.358-5.478c6.693-.088,13.387-.037,20.081-.023,1.122,0,2.112.368,2.124,1.7.013,1.41-.96,1.785-2.188,1.784q-9.555-.009-19.11,0c-2.409,0-2.79.388-2.792,2.855q-.009,9.347,0,18.695c0,2.285.469,2.745,2.75,2.76,1.619.011,3.239-.005,4.858,0,2.293.013,2.707.435,2.762,2.756.01.411.057.821.123,1.74,1.3-1.376,2.257-2.543,3.384-3.507a4.169,4.169,0,0,1,2.261-.945c1.88-.135,3.776-.04,5.665-.045,1.174,0,2.258.2,2.279,1.669.023,1.575-1.12,1.772-2.352,1.755a.992.992,0,0,1-.162,0c-3.885-.7-6.883.669-9.166,3.855a7.57,7.57,0,0,1-1.954,1.929c-.736.478-1.875,1.121-2.444.852-.612-.289-.96-1.528-1.074-2.4a34.2,34.2,0,0,1-.045-4.246" transform="translate(0 -89.109)" fill="#fe8672"/>
    <path id="Tracciato_6" data-name="Tracciato 6" d="M372.4,174.189a20.469,20.469,0,0,1,.016-2.248c.116-1.047.774-1.87,1.806-1.591a2.481,2.481,0,0,1,1.538,1.679,45.575,45.575,0,0,1,.021,6.657,2.3,2.3,0,0,1-1.148,1.714,2.415,2.415,0,0,1-1.976-.585,53,53,0,0,1-4.476-4.469,4.208,4.208,0,0,0-3.915-1.695,2.365,2.365,0,0,1-1.723-.6,1.72,1.72,0,0,1-.317-1.585,2.415,2.415,0,0,1,1.528-1.18c2.344-.309,4.654-.309,6.225,1.988.543.794,1.218,1.5,1.833,2.24l.587-.321" transform="translate(-303.231 -142.463)" fill="#fe8672"/>
    <rect id="Rettangolo_20" data-name="Rettangolo 20" width="17.143" height="3.261" transform="translate(6.987 31.352)" fill="#fe8672"/>
    <rect id="Rettangolo_21" data-name="Rettangolo 21" width="17.132" height="3.214" transform="translate(7.004 24.403)" fill="#fe8672"/>
    <rect id="Rettangolo_22" data-name="Rettangolo 22" width="3.283" height="3.289" transform="translate(7.009 38.262)" fill="#fe8672"/>
    <rect id="Rettangolo_23" data-name="Rettangolo 23" width="3.255" height="3.28" transform="translate(51.976 13.997)" fill="#fe8672"/>
    <rect id="Rettangolo_24" data-name="Rettangolo 24" width="3.28" height="3.269" transform="translate(58.855 13.967)" fill="#fe8672"/>
    <rect id="Rettangolo_25" data-name="Rettangolo 25" width="3.255" height="3.286" transform="translate(13.927 38.275)" fill="#fe8672"/>
    <rect id="Rettangolo_26" data-name="Rettangolo 26" width="3.197" height="3.21" transform="translate(65.854 14.011)" fill="#fe8672"/>
    <rect id="Rettangolo_27" data-name="Rettangolo 27" width="3.183" height="3.272" transform="translate(39.919 74.72)" fill="#fe8672"/>
  </g>
</svg>
