<svg id="Raggruppa_12" data-name="Raggruppa 12" xmlns="http://www.w3.org/2000/svg" xmlns:xlink="http://www.w3.org/1999/xlink" width="90.75" height="83.284" viewBox="0 0 90.75 83.284">
  <defs>
    <clipPath id="clip-path">
      <rect id="Rettangolo_30" data-name="Rettangolo 30" width="90.75" height="83.284" fill="#fe8672"/>
    </clipPath>
  </defs>
  <g id="Raggruppa_11" data-name="Raggruppa 11" clip-path="url(#clip-path)">
    <path id="Tracciato_11" data-name="Tracciato 11" d="M0,201.774a11.32,11.32,0,0,1,2.759-.823c2.889-.108,5.785-.049,8.678-.037,2.219.01,2.509.273,2.885,2.792,2.2-1.713,4.375-3.22,6.335-4.963a18.487,18.487,0,0,1,12.128-5.093,17.282,17.282,0,0,1,12.435,4.687,5.839,5.839,0,0,0,4.467,1.689c2.121-.1,4.25-.025,6.376-.023,3.512,0,4.955.685,7.3,3.548,3.1-2.053,6.146-4.267,9.388-6.132a18.624,18.624,0,0,1,6.34-2.429c4.41-.65,8.085,1.121,10.9,4.57,1.12,1.372,1.01,2.185-.43,3.258-4.071,3.031-8.172,6.022-12.257,9.034-.977.72-1.979.94-2.8-.127-.842-1.1-.3-1.99.669-2.7q5.481-4.043,10.971-8.078a7.769,7.769,0,0,0-9.693-1.62c-4.021,2.342-7.834,5.043-11.7,7.644a2.271,2.271,0,0,0-.621,1.336,7.1,7.1,0,0,1-7.183,5.864c-6.79.032-13.581,0-20.371.02-1.346,0-2.483-.343-2.431-1.868.048-1.408,1.164-1.7,2.428-1.7q10.008.036,20.017.005c2.185,0,3.634-1.043,3.986-2.775a3.525,3.525,0,0,0-3.526-4.287c-2.655-.07-5.314-.057-7.971-.009a8.04,8.04,0,0,1-5.654-2.093c-6.684-5.816-13.836-5.727-20.534.039-2.408,2.073-5.09,3.825-7.61,5.772-.461.357-1.048.94-1.058,1.43-.084,4.119-.048,8.24-.048,12.317,12.093.6,23.524,4.159,35.234,6.109a2.867,2.867,0,0,0,1.885-.578c3.17-2.263,6.289-4.6,9.426-6.907.38-.28.749-.76,1.149-.788a4,4,0,0,1,2.48.272c.866.686.575,1.776-.3,2.429-4.067,3.035-8.137,6.07-12.292,8.981a3.689,3.689,0,0,1-2.528.206C39.8,228.885,30.4,226.9,20.961,225.1a52.182,52.182,0,0,0-6.786-.4c0,1.452-.028,2.722.007,3.991.043,1.543-.653,2.31-2.213,2.3-3.248-.01-6.5.05-9.742-.042A7.5,7.5,0,0,1,0,230.126V201.774M10.529,204.6H3.646v22.71h6.883Z" transform="translate(0 -147.715)" fill="#fe8672"/>
    <path id="Tracciato_12" data-name="Tracciato 12" d="M100.01,10.048c1.357-1.4,2.544-2.616,3.721-3.843a1.946,1.946,0,0,1,3.2,0c1.178,1.226,2.364,2.444,3.717,3.842,1.349-1.393,2.536-2.609,3.712-3.836a1.958,1.958,0,0,1,3.2-.014c3.291,3.307,6.612,6.583,9.89,9.9,1.406,1.423,1.223,2.553-.568,3.47-3.2,1.639-6.414,3.264-9.672,4.785a6.7,6.7,0,0,1-2.74.472q-14.616.048-29.233,0a2.647,2.647,0,0,0-2.764,1.544,17.589,17.589,0,0,1-20.3,8.386,17.7,17.7,0,1,1,20.284-25.7,3.032,3.032,0,0,0,2.69,1.691c3.033.438,4.774-1.216,6.6-3.15,2.892-3.053,2.957-3,5.932-.011.741.745,1.446,1.525,2.331,2.462m-5.49-.8c-2.495,4.788-6.409,5.38-10.863,5.025-1.858-.148-2.959-.557-3.767-2.4A13.969,13.969,0,0,0,63.962,3.91,14.171,14.171,0,0,0,64.112,31.6a14.034,14.034,0,0,0,15.853-8.144,3.214,3.214,0,0,1,3.508-2.184c9.212.063,18.436-.233,27.633.137,4.829.194,8.332-2.282,12.222-4.031l-7.6-7.607c-1.043,1.068-2.172,2.258-3.339,3.408-1.32,1.3-2.141,1.3-3.451.027-1.2-1.173-2.381-2.374-3.67-3.662-1.292,1.342-2.377,2.51-3.508,3.631-1.32,1.307-2.152,1.318-3.447.032-1.165-1.157-2.277-2.369-3.791-3.954" transform="translate(-37.643 0)" fill="#fe8672"/>
    <path id="Tracciato_13" data-name="Tracciato 13" d="M289.391,280.439c-.7.433-1.43,1.237-2.1,1.187a2.388,2.388,0,0,1-1.6-1.61,1.408,1.408,0,0,1,1.745-1.646c.7.13,1.3.838,1.942,1.287l.013.782" transform="translate(-217.908 -212.321)" fill="#fe8672"/>
    <path id="Tracciato_14" data-name="Tracciato 14" d="M101.145,59.127a7.057,7.057,0,1,1,7.171-6.971,7.068,7.068,0,0,1-7.171,6.971m3.62-7.083a3.532,3.532,0,1,0-3.463,3.521,3.5,3.5,0,0,0,3.463-3.521" transform="translate(-71.819 -34.337)" fill="#fe8672"/>
  </g>
</svg>
