<svg id="Raggruppa_10" data-name="Raggruppa 10" xmlns="http://www.w3.org/2000/svg" xmlns:xlink="http://www.w3.org/1999/xlink" width="85.835" height="86.144" viewBox="0 0 85.835 86.144">
  <defs>
    <clipPath id="clip-path">
      <rect id="Rettangolo_29" data-name="Rettangolo 29" width="85.835" height="86.143" fill="#fe8672"/>
    </clipPath>
  </defs>
  <g id="Raggruppa_9" data-name="Raggruppa 9" clip-path="url(#clip-path)">
    <path id="Tracciato_7" data-name="Tracciato 7" d="M102.976,29.275a9.063,9.063,0,0,1-2.676.964c-4.3.1-8.6.076-12.9.025a2.841,2.841,0,0,0-2.537,1.154c-2.622,3.219-5.9,5.236-10.225,5.212a3.02,3.02,0,0,0-1.782,1C67.814,42.639,62.81,47.685,57.793,52.718c-1.8,1.806-2.357,1.814-4.109.057Q38.574,37.616,23.468,22.454c-1.831-1.838-1.827-2.233.026-4.093Q32.024,9.8,40.554,1.235C40.937.851,41.267.413,41.621,0H43.3c1.822,1.876,3.612,3.787,5.5,5.593a1.923,1.923,0,0,0,1.606.183c2.07-.663,4.116-1.411,6.148-2.187a13.665,13.665,0,0,1,11.211.391c3.516,1.7,6.917,3.628,10.417,5.359,1.514.749,3.148,1.251,4.778,1.885,1.208-4.071,4.444-1.582,6.512-2.649.5-2.865.5-2.866,3.644-2.866,2.457,0,4.919-.085,7.37.047a8.572,8.572,0,0,1,2.494.974ZM51.956,8.85c1.682,1.68,3.1,3.275,4.711,4.643a12.842,12.842,0,0,0,3.752,2.29c3.136,1.156,6.364,2.061,9.545,3.1,1.018.332,1.662,1.019,1.281,2.161a1.635,1.635,0,0,1-2.3,1.042c-.374-.112-.745-.235-1.117-.353-4.41-1.4-8.812-2.833-13.232-4.2a3.259,3.259,0,0,0-4.245,1.644A3.4,3.4,0,0,0,51.972,23.6a11.583,11.583,0,0,0,2.148.912c3.531,1.221,7.094,2.353,10.592,3.661A8.194,8.194,0,0,1,67.7,30.117,9.566,9.566,0,0,0,82.823,28.6a3.14,3.14,0,0,0,.435-1.564c.036-3.811-.007-7.623.038-11.433.011-.921-.349-1.172-1.191-1.42a40.43,40.43,0,0,1-5.928-2.129c-3.375-1.6-6.628-3.457-9.981-5.1a9.8,9.8,0,0,0-7.345-.56c-2.233.682-4.406,1.565-6.9,2.464M32.662,26.463,49.72,43.592c3.959-2.49,8.061-2.451,12.165.111l3.661-3.641a31.25,31.25,0,0,1-1.49-4.185,33.917,33.917,0,0,1-.351-4.546l-5.294-1.775c-.163.349-.264.544-.346.746C56.273,34.677,52.173,37.21,47.9,36.58a9.609,9.609,0,0,1-1.475-18.738,3.44,3.44,0,0,0,1.138-.612c1.386-1.2,2.738-2.44,4.029-3.6l-3.017-3.164a10.755,10.755,0,0,1-12.155.059l-3.87,3.638c2.485,4.947,2.486,7.573.111,12.3M99.565,9.19H93.11V26.81h6.454ZM55.072,28.371c-3.852-1.087-7.48-2.409-8.375-6.931a6.092,6.092,0,0,0-3.672,6.946,6.281,6.281,0,0,0,5.845,4.9c2.888.111,5.284-1.708,6.2-4.916M86.76,26.818h2.709V12.263H86.76ZM42.708,4.682,39.046,8.1a7.017,7.017,0,0,0,7.019-.105l-3.357-3.31M26.74,20.225l3.455,3.691a7.39,7.39,0,0,0-.08-7.07l-3.375,3.38M59.391,46.142c-2.541-1.294-4.915-1.378-7.032-.136l3.368,3.944,3.665-3.809M66.922,34.06l1.11,3.246,2.032-1.555L66.922,34.06" transform="translate(-17.142)" fill="#fe8672"/>
    <path id="Tracciato_8" data-name="Tracciato 8" d="M39.232,266.248c-4.724-2.213-9.439-4.444-14.176-6.628-1.6-.738-3.254-1.359-5-2.083-1.134,4.138-4.445,1.6-6.54,2.658-.5,2.938-.528,2.963-3.634,2.963-2.513,0-5.025.02-7.537-.008-1.764-.019-2.326-.572-2.33-2.3q-.022-10,0-20.005c0-1.79.481-2.255,2.324-2.264,4.467-.02,8.934.042,13.4-.055a3.3,3.3,0,0,0,2.207-1.034c5.6-6.69,13.745-7.088,19.909-.935a4.943,4.943,0,0,0,1.831,1.058c3.628,1.276,7.272,2.506,10.918,3.732a7.843,7.843,0,0,1,4.949,3.984c.458.965,1.031.768,1.765.56q5.471-1.551,10.953-3.062c5.1-1.4,9.338,1.47,9.331,6.3,0,2.987-2.14,5.653-5.68,6.936q-12.264,4.446-24.552,8.825c-1.358.486-2.739.909-4.109,1.361ZM19.708,253.776c2.972,1.3,5.585,2.349,8.119,3.565,2.968,1.424,5.84,3.047,8.8,4.479a10.348,10.348,0,0,0,8.3.394q8.262-2.991,16.528-5.974c3.254-1.174,6.531-2.287,9.762-3.522,2.39-.913,3.488-2.932,2.8-4.836-.656-1.819-2.416-2.481-4.948-1.787-3.928,1.076-7.853,2.165-11.757,3.325a2.484,2.484,0,0,0-1.393,1.162c-1.739,3.675-4.794,5.1-8.686,3.89-4.581-1.427-9.144-2.911-13.719-4.355-1.145-.361-2.228-.831-1.788-2.3s1.611-1.291,2.758-.925l7.494,2.391c2.126.678,4.243,1.386,6.381,2.023a3.291,3.291,0,0,0,4.256-1.655,3.413,3.413,0,0,0-1.615-4.439,9.707,9.707,0,0,0-1.835-.8c-3.747-1.286-7.52-2.5-11.24-3.858a6.684,6.684,0,0,1-2.544-1.728,9.583,9.583,0,0,0-15.342,1.553,2.36,2.36,0,0,0-.324,1.1c-.022,4.255-.014,8.51-.014,12.3M9.9,242.033H3.451V259.7H9.9Zm6.334.042H13.5v14.48h2.737Z" transform="translate(0 -180.105)" fill="#fe8672"/>
    <path id="Tracciato_9" data-name="Tracciato 9" d="M255.865,91.609c.438.645,1.241,1.31,1.209,1.93a2.284,2.284,0,0,1-1.5,1.573,1.337,1.337,0,0,1-1.613-1.6c.106-.666.747-1.246,1.149-1.865l.754-.037" transform="translate(-196.974 -71.058)" fill="#fe8672"/>
    <path id="Tracciato_10" data-name="Tracciato 10" d="M117.969,290.143c-.639.446-1.3,1.262-1.911,1.231a2.29,2.29,0,0,1-1.56-1.514,1.351,1.351,0,0,1,1.582-1.648c.659.1,1.234.767,1.846,1.181q.021.375.042.75" transform="translate(-88.786 -223.543)" fill="#fe8672"/>
  </g>
</svg>
