<svg id="Raggruppa_16" data-name="Raggruppa 16" xmlns="http://www.w3.org/2000/svg" xmlns:xlink="http://www.w3.org/1999/xlink" width="68.007" height="86.144" viewBox="0 0 68.007 86.144">
  <defs>
    <clipPath id="clip-path">
      <rect id="Rettangolo_32" data-name="Rettangolo 32" width="68.007" height="86.144" fill="#fe8672"/>
    </clipPath>
  </defs>
  <g id="Raggruppa_15" data-name="Raggruppa 15" clip-path="url(#clip-path)">
    <path id="Tracciato_21" data-name="Tracciato 21" d="M21.566,86.144A23.058,23.058,0,0,1,20.3,83.293c-.742-2.513-1.373-5.059-2.1-7.769-2.918.767-5.7,1.573-8.516,2.191-.808.177-2.112.107-2.5-.39A2.929,2.929,0,0,1,7.4,74.8c2.234-4.073,4.6-8.072,6.92-12.1.273-.474.512-.968.68-1.288a28.447,28.447,0,0,1-4.6-1.933,7.094,7.094,0,0,1-3.365-6.243,5.854,5.854,0,0,0-3.159-5.482,7.765,7.765,0,0,1-2.867-10.55A6.114,6.114,0,0,0,.984,30.74,7.769,7.769,0,0,1,3.926,20.208,5.867,5.867,0,0,0,7.038,14.87a7.77,7.77,0,0,1,7.788-7.834,5.9,5.9,0,0,0,5.363-3.074A7.826,7.826,0,0,1,31.007,1.089a5.668,5.668,0,0,0,6.007,0A7.837,7.837,0,0,1,47.834,3.959a5.793,5.793,0,0,0,5.192,3.068A7.813,7.813,0,0,1,61,15.034a5.633,5.633,0,0,0,2.961,5.072A7.878,7.878,0,0,1,66.9,31.043,5.552,5.552,0,0,0,66.87,36.9a7.907,7.907,0,0,1-3,11.052,5.392,5.392,0,0,0-2.859,4.613c-.262,5.165-2.748,7.813-8.147,8.54.3.579.548,1.1.835,1.6,2.317,4.028,4.685,8.027,6.92,12.1a2.933,2.933,0,0,1,.212,2.522c-.388.5-1.693.569-2.5.392-2.781-.612-5.519-1.415-8.5-2.205-.7,2.591-1.331,5.122-2.076,7.62a26.671,26.671,0,0,1-1.3,3.015H45.113a16.161,16.161,0,0,1-1.432-1.817c-2.906-4.971-5.776-9.964-8.66-14.948-.29-.5-.6-.991-1.034-1.7-3.284,5.688-6.4,11.108-9.55,16.507a17.907,17.907,0,0,1-1.525,1.956ZM40.508,64.651A5.154,5.154,0,0,0,45.184,62a8.324,8.324,0,0,1,7.453-4.357c3.263-.114,4.9-1.762,5.017-5.036a8.5,8.5,0,0,1,4.364-7.46c2.655-1.6,3.347-4.066,1.855-6.752a8.418,8.418,0,0,1-.013-8.77c1.5-2.7.823-5.169-1.819-6.761a8.515,8.515,0,0,1-4.385-7.449c-.122-3.3-1.741-4.953-4.99-5.062a8.494,8.494,0,0,1-7.482-4.324C43.53,3.3,41.105,2.654,38.3,4.2a8.33,8.33,0,0,1-8.62-.028c-2.77-1.535-5.189-.847-6.867,1.907a8.438,8.438,0,0,1-7.34,4.274c-3.386.134-4.963,1.719-5.107,5.121A8.448,8.448,0,0,1,6.08,22.807c-2.752,1.67-3.428,4.089-1.891,6.871A8.341,8.341,0,0,1,4.2,38.3c-1.54,2.8-.886,5.225,1.854,6.881a8.442,8.442,0,0,1,4.307,7.32c.149,3.431,1.7,5,5.081,5.138a8.446,8.446,0,0,1,7.351,4.26c1.716,2.827,4.081,3.456,7,1.866a8.271,8.271,0,0,1,8.477.018,14.8,14.8,0,0,0,2.233.868m4.578,15.41c.639-2.353,1.172-4.335,1.717-6.314.532-1.931,1.063-2.235,3.042-1.728s3.938,1.029,6.3,1.648L49.3,61.828c-2.521,4.669-5.91,7.2-11.478,5.668l7.26,12.565M18.726,61.811,11.853,73.73c2.348-.641,4.228-1.166,6.114-1.667,2.238-.594,2.691-.315,3.316,1.963.518,1.887,1.048,3.77,1.675,6.02l7.249-12.577c-5.579,1.552-8.939-.958-11.481-5.657" transform="translate(0 0)" fill="#fe8672"/>
    <path id="Tracciato_22" data-name="Tracciato 22" d="M90.324,64.047c-.065,14.362-10.36,25.294-23.257,26.084a24.942,24.942,0,0,1-24.36-35.04c.514-1.184,1.195-2.208,2.637-1.507,1.364.663.921,1.8.448,2.9A21.489,21.489,0,1,0,56.435,45.718c-1.521.683-2.586.346-2.847-.864-.272-1.264.543-1.763,1.538-2.229a24.848,24.848,0,0,1,30.821,8.594,23.943,23.943,0,0,1,4.376,12.828" transform="translate(-31.414 -31.275)" fill="#fe8672"/>
    <path id="Tracciato_23" data-name="Tracciato 23" d="M107.394,100.117a3.489,3.489,0,0,0,.538.171c5.642.388,6.957,1.8,6.957,7.5,0,1.625.014,3.25,0,4.875-.038,3.438-2.207,5.827-5.625,5.777-4.34-.063-8.749.68-13-.838a.831.831,0,0,0-.643,0c-2.024,1.47-4.34.8-6.53.856-2.658.072-3.8-1.138-3.812-3.76q-.021-6.3,0-12.607c.011-2.522,1.172-3.7,3.738-3.659,1.945.028,3.886.251,5.831.318a1.723,1.723,0,0,0,1.17-.457,46.877,46.877,0,0,0,3.7-4.088c1.724-2.271,3.874-3.036,6.1-1.941,2.2,1.082,2.991,3.32,2.137,6.021-.182.575-.348,1.156-.551,1.835M96.469,107.99q0,1.846,0,3.691c0,2.694.076,2.986,2.837,3.2,3.336.261,6.7.218,10.05.2a2.047,2.047,0,0,0,2.162-2.271c.014-2.181.024-4.363,0-6.544-.02-1.852-.688-2.534-2.515-2.574-1.621-.035-3.251.069-4.861-.067a2.283,2.283,0,0,1-1.569-1,2.221,2.221,0,0,1,.211-1.688c.573-1.218,1.408-2.324,1.875-3.574.211-.565-.2-1.363-.332-2.056a6.49,6.49,0,0,0-1.848.939c-.972.992-1.573,2.51-2.7,3.154-3.324,1.9-3.717,4.775-3.312,8.084a4.162,4.162,0,0,1,0,.5m-7.7,6.987h4.19V101.844h-4.19Z" transform="translate(-66.065 -71.108)" fill="#fe8672"/>
    <path id="Tracciato_24" data-name="Tracciato 24" d="M74.478,73.079c-.605.427-1.164,1.1-1.826,1.223A1.356,1.356,0,0,1,71,72.719a2.3,2.3,0,0,1,1.531-1.565c.62-.05,1.309.747,1.968,1.175l-.018.75" transform="translate(-54.996 -55.133)" fill="#fe8672"/>
  </g>
</svg>
